{"title":"The Prince And Me 4 2010.BRRip.H264.Feel-Free","uid":5853853,"size":1658440558,"categoryP":"video","categoryS":"movies","magnet":"?xt=urn:btih:310cd5a8f73a291e02ea5d5b45f9644550e4e545&amp;dn=The+Prince+And+Me+4+2010.BRRip.H264.Feel-Free&amp;tr=udp%3A%2F%2Ftracker.openbittorrent.com%3A80&amp;tr=udp%3A%2F%2Fopen.demonii.com%3A1337&amp;tr=udp%3A%2F%2Ftracker.coppersurfer.tk%3A6969&amp;tr=udp%3A%2F%2Fexodus.desync.com%3A6969","seeders":7,"leechers":4,"uploader":"neon","files":8,"time":1285519987,"description":"\n\nLanguage: English\nGenre:Comedy | Romance\n &lt;a href=&quot; http://www.imdb.com/title/tt1340161/&quot; rel=&quot;nofollow&quot; target=&quot;_NEW&quot;&gt; http://www.imdb.com/title/tt1340161/&lt;/a&gt;\nSource:x264-PFa\n\nGeneral\nComplete name :The.Prince.And.Me.4.2010.BRRip.H264.Feel-Free\nFormat : MPEG-4\nFormat profile : Base Media\nCodec ID : isom\nFile size : 1.54 GiB\nDuration : 1h 33mn\nOverall bit rate : 2 376 Kbps\nVideo #1\nID : 1\nFormat : AVC\nFormat/Info : Advanced Video Codec\nFormat profile : &lt;a class=&quot;__cf_email__&quot; href=&quot;/cdn-cgi/l/email-protection&quot; data-cfemail=&quot;33715240565f5a5d56737f061d02&quot;&gt;[email&amp;#160;protected]&lt;/a&gt;&lt;script cf-hash='f9e31' type=&quot;text/javascript&quot;&gt;\n/* &lt;![CDATA[ */!function(){try{var t=&quot;currentScript&quot;in document?document.currentScript:function(){for(var t=document.getElementsByTagName(&quot;script&quot;),e=t.length;e--;)if(t[e].getAttribute(&quot;cf-hash&quot;))return t[e]}();if(t&amp;&amp;t.previousSibling){var e,r,n,i,c=t.previousSibling,a=c.getAttribute(&quot;data-cfemail&quot;);if(a){for(e=&quot;&quot;,r=parseInt(a.substr(0,2),16),n=2;a.length-n;n+=2)i=parseInt(a.substr(n,2),16)^r,e+=String.fromCharCode(i);e=document.createTextNode(e),c.parentNode.replaceChild(e,c)}}}catch(u){}}();/* ]]&gt; */&lt;/script&gt;\nFormat settings, CABAC : No\nFormat settings, ReFrames : 1 frame\nCodec ID : avc1\nCodec ID/Info : Advanced Video Coding\nDuration : 1h 33mn\nBit rate mode : Variable\nBit rate : 2 052 Kbps\nWidth : 720 pixels\nHeight : 384 pixels\nDisplay aspect ratio : 1.875\nFrame rate mode : Constant\nFrame rate : 24.390 fps\nResolution : 24 bits\nColorimetry : 4:2:0\nScan type : Progressive\nBits/(Pixel*Frame) : 0.304\nStream size : 1.33 GiB (86%)\nAudio #2\nID : 2\nFormat : AAC\nFormat/Info : Advanced Audio Codec\nFormat version : Version 4\nFormat profile : LC\nFormat settings, SBR : No\nCodec ID : 40\nDuration : 1h 33mn\nBit rate mode : Variable\nBit rate : 320 Kbps\nChannel(s) : 6 channels\nChannel positions : Front: L C R, Rear: L R, LFE\nSampling rate : 48.0 KHz\nResolution : 16 bits\nStream size : 213 MiB (13%)\n\nPlot:\nKing Edvard (Chris Geere) and Queen Paige (Cam Heskin) journey to\nAsia to attend the wedding of Princess Myra of Sangyoon (Ase Wang)\nand find themselves on the adventure of a lifetime when things\ndon't go as smoothly as planned. Upon arriving in Sangyoon, the\nyoung King and Queen discover that the Myra is desperate to get\nout of the arranged marriage. Her prospective future husband Kah\nPrinya Intach) is downright malevolent, and Myra's true heart\nlies with Alu (Amarin Cholvibul), a kindly young elephant handler\nWhen word of Myra and Alu's romance gets out, Alu is imprisoned\nand the sacred wedding elephant vanishes into the dense jungle\nNow, in order to ensure a happy ending for their dear friend\nEdvard and Paige set out to track down the elephant, free Alu\nand convince Myra's father that the only way his daughter will\never be happy is to marry the one man she truly loves\n\n &lt;a href=&quot;\nhttp://www.youtube.com/watch?v=HpHWocQcFek&amp;feature=player_embedded&quot; rel=&quot;nofollow&quot; target=&quot;_NEW&quot;&gt;\nhttp://www.youtube.com/watch?v=HpHWocQcFek&amp;feature=player_embedded&lt;/a&gt;\n &lt;a href=&quot;\nhttp://www.starshare.ro/bitbucket/The.Prince.And.Me.4.2010.BRRip.H264.Feel-Free.mp4_thumbs_%5B2010.09.26_17.22.28%5D.jpg&quot; rel=&quot;nofollow&quot; target=&quot;_NEW&quot;&gt;\nhttp://www.starshare.ro/bitbucket/The.Prince.And.Me.4.2010.BRRip.H264.Feel-Free.mp4_thumbs_%5B2010.09.26_17.22.28%5D.jpg&lt;/a&gt;","torrent":{"xt":"urn:btih:310cd5a8f73a291e02ea5d5b45f9644550e4e545","amp;dn":"The+Prince+And+Me+4+2010.BRRip.H264.Feel-Free","amp;tr":["udp%3A%2F%2Ftracker.openbittorrent.com%3A80","udp%3A%2F%2Fopen.demonii.com%3A1337","udp%3A%2F%2Ftracker.coppersurfer.tk%3A6969","udp%3A%2F%2Fexodus.desync.com%3A6969"],"infoHash":"310cd5a8f73a291e02ea5d5b45f9644550e4e545","infoHashBuffer":{"type":"Buffer","data":[49,12,213,168,247,58,41,30,2,234,93,91,69,249,100,69,80,228,229,69]},"announce":[],"urlList":[]}}